<?xml version="1.0" encoding="UTF-8"?>
<!DOCTYPE svg PUBLIC "-//W3C//DTD SVG 1.1//EN" "http://www.w3.org/Graphics/SVG/1.1/DTD/svg11.dtd">
<svg xmlns="http://www.w3.org/2000/svg" version="1.1" width="512px" height="512px" style="shape-rendering:geometricPrecision; text-rendering:geometricPrecision; image-rendering:optimizeQuality; fill-rule:evenodd; clip-rule:evenodd" xmlns:xlink="http://www.w3.org/1999/xlink">
<g><path style="opacity:0.986" fill="#979797" d="M 235.5,-0.5 C 242.167,-0.5 248.833,-0.5 255.5,-0.5C 255.5,6.83333 255.5,14.1667 255.5,21.5C 193.785,23.1033 144.952,48.7699 109,98.5C 75.1453,150.35 69.1453,205.35 91,263.5C 114.864,319.694 156.364,355.527 215.5,371C 228.734,373.49 242.067,374.99 255.5,375.5C 255.5,420.833 255.5,466.167 255.5,511.5C 255.167,511.5 254.833,511.5 254.5,511.5C 221.77,477.939 189.936,443.605 159,408.5C 131.883,376.944 108.216,342.944 88,306.5C 71.6586,277.476 61.3252,246.476 57,213.5C 53.7168,129.219 88.2168,65.7186 160.5,23C 184.203,10.5964 209.203,2.76309 235.5,-0.5 Z"/></g>
<g><path style="opacity:0.986" fill="#b3b3b3" d="M 255.5,-0.5 C 262.167,-0.5 268.833,-0.5 275.5,-0.5C 357.869,11.944 414.369,56.944 445,134.5C 458.796,179.305 457.463,223.638 441,267.5C 423.608,309.162 400.942,347.495 373,382.5C 336.179,427.163 297.345,470.163 256.5,511.5C 256.167,511.5 255.833,511.5 255.5,511.5C 255.5,466.167 255.5,420.833 255.5,375.5C 320.405,373.311 370.572,345.311 406,291.5C 436.735,238.759 440.735,184.092 418,127.5C 384.926,60.1916 330.76,24.8583 255.5,21.5C 255.5,14.1667 255.5,6.83333 255.5,-0.5 Z"/></g>
<g><path style="opacity:1" fill="#c6c6c6" d="M 255.5,21.5 C 330.76,24.8583 384.926,60.1916 418,127.5C 440.735,184.092 436.735,238.759 406,291.5C 370.572,345.311 320.405,373.311 255.5,375.5C 242.067,374.99 228.734,373.49 215.5,371C 156.364,355.527 114.864,319.694 91,263.5C 69.1453,205.35 75.1453,150.35 109,98.5C 144.952,48.7699 193.785,23.1033 255.5,21.5 Z"/></g>
<g><path style="opacity:1" fill="#338af2" d="M 325.5,59.5 C 255.5,128.833 185.833,198.5 116.5,268.5C 111.018,259.183 106.851,249.183 104,238.5C 89.9749,171.568 109.142,116.401 161.5,73C 207.499,40.707 257.166,33.707 310.5,52C 315.946,53.8546 320.946,56.3546 325.5,59.5 Z"/></g>
<g><path style="opacity:1" fill="#fcd747" d="M 325.5,59.5 C 332.616,61.8888 338.949,65.5555 344.5,70.5C 271.833,142.5 199.5,214.833 127.5,287.5C 122.6,281.921 118.933,275.587 116.5,268.5C 185.833,198.5 255.5,128.833 325.5,59.5 Z"/></g>
<g><path style="opacity:1" fill="#d80327" d="M 344.5,70.5 C 359.812,81.1455 372.812,94.1455 383.5,109.5C 311.5,182.167 239.167,254.5 166.5,326.5C 151.167,315.833 138.167,302.833 127.5,287.5C 199.5,214.833 271.833,142.5 344.5,70.5 Z"/></g>
<g><path style="opacity:1" fill="#fad849" d="M 180.5,87.5 C 183.667,95.6588 186.667,103.992 189.5,112.5C 198.482,113.332 207.482,113.832 216.5,114C 209.577,119.045 202.744,124.212 196,129.5C 195.333,130.833 195.333,132.167 196,133.5C 198.774,141.145 201.107,148.812 203,156.5C 195.764,150.798 188.264,145.465 180.5,140.5C 172.91,145.255 165.743,150.589 159,156.5C 161.338,147.489 163.671,138.489 166,129.5C 158.833,124.333 151.667,119.167 144.5,114C 153.827,113.5 163.161,113.334 172.5,113.5C 174.86,104.725 177.526,96.0582 180.5,87.5 Z"/></g>
<g><path style="opacity:1" fill="#fed944" d="M 383.5,109.5 C 387.921,115.334 391.588,121.668 394.5,128.5C 324.5,197.833 254.833,267.5 185.5,337.5C 178.413,335.067 172.079,331.4 166.5,326.5C 239.167,254.5 311.5,182.167 383.5,109.5 Z"/></g>
<g><path style="opacity:1" fill="#348af2" d="M 394.5,128.5 C 411.835,161.691 416.335,196.691 408,233.5C 388.163,302.667 342.663,342.834 271.5,354C 247.856,356.669 224.856,354.003 202.5,346C 196.462,343.648 190.796,340.815 185.5,337.5C 254.833,267.5 324.5,197.833 394.5,128.5 Z"/></g>
</svg>
